<mxfile host="app.diagrams.net" agent="Mozilla/5.0 (Windows NT 10.0; Win64; x64) AppleWebKit/537.36 (KHTML, like Gecko) Chrome/132.0.0.0 YaBrowser/25.2.0.0 Safari/537.36" version="26.1.3">
  <diagram name="Страница — 1" id="-_NmRY38eZyaIqi6wy7-">
    <mxGraphModel dx="2283" dy="667" grid="1" gridSize="10" guides="1" tooltips="1" connect="1" arrows="1" fold="1" page="1" pageScale="1" pageWidth="827" pageHeight="1169" math="0" shadow="0">
      <root>
        <mxCell id="0" />
        <mxCell id="1" parent="0" />
        <mxCell id="2lmH5vOfD7ZD-TU4pu-p-11" style="edgeStyle=orthogonalEdgeStyle;rounded=0;orthogonalLoop=1;jettySize=auto;html=1;entryX=0.5;entryY=0;entryDx=0;entryDy=0;" parent="1" source="2lmH5vOfD7ZD-TU4pu-p-4" target="2lmH5vOfD7ZD-TU4pu-p-10" edge="1">
          <mxGeometry relative="1" as="geometry" />
        </mxCell>
        <mxCell id="2lmH5vOfD7ZD-TU4pu-p-4" value="" style="ellipse;fillColor=strokeColor;html=1;" parent="1" vertex="1">
          <mxGeometry x="275" width="30" height="30" as="geometry" />
        </mxCell>
        <mxCell id="2lmH5vOfD7ZD-TU4pu-p-10" value="появление" style="html=1;align=center;verticalAlign=top;rounded=1;absoluteArcSize=1;arcSize=10;dashed=0;whiteSpace=wrap;" parent="1" vertex="1">
          <mxGeometry x="220" y="60" width="140" height="40" as="geometry" />
        </mxCell>
        <mxCell id="8MDQdU8q3CV9VLgFz5-Q-2" value="" style="html=1;points=[];perimeter=orthogonalPerimeter;fillColor=strokeColor;rotation=90;" parent="1" vertex="1">
          <mxGeometry x="477.5" y="-360" width="5" height="990" as="geometry" />
        </mxCell>
        <mxCell id="8MDQdU8q3CV9VLgFz5-Q-5" value="управление персонажем" style="html=1;dashed=0;rounded=1;absoluteArcSize=1;arcSize=20;verticalAlign=middle;align=center;whiteSpace=wrap;" parent="1" vertex="1">
          <mxGeometry x="540" y="160" width="110" height="50" as="geometry" />
        </mxCell>
        <mxCell id="8MDQdU8q3CV9VLgFz5-Q-6" value="*" style="text;resizeWidth=0;resizeHeight=0;points=[];part=1;verticalAlign=middle;align=center;html=1;" parent="8MDQdU8q3CV9VLgFz5-Q-5" vertex="1">
          <mxGeometry x="1" y="0.5" width="20" height="20" relative="1" as="geometry">
            <mxPoint x="-20" y="-10" as="offset" />
          </mxGeometry>
        </mxCell>
        <mxCell id="8MDQdU8q3CV9VLgFz5-Q-9" value="разговор&amp;nbsp;&lt;div&gt;с НИП&lt;/div&gt;" style="html=1;dashed=0;rounded=1;absoluteArcSize=1;arcSize=20;verticalAlign=middle;align=center;whiteSpace=wrap;" parent="1" vertex="1">
          <mxGeometry x="80" y="170" width="110" height="50" as="geometry" />
        </mxCell>
        <mxCell id="8MDQdU8q3CV9VLgFz5-Q-10" value="*" style="text;resizeWidth=0;resizeHeight=0;points=[];part=1;verticalAlign=middle;align=center;html=1;" parent="8MDQdU8q3CV9VLgFz5-Q-9" vertex="1">
          <mxGeometry x="1" y="0.5" width="20" height="20" relative="1" as="geometry">
            <mxPoint x="-20" y="-10" as="offset" />
          </mxGeometry>
        </mxCell>
        <mxCell id="8MDQdU8q3CV9VLgFz5-Q-63" style="edgeStyle=orthogonalEdgeStyle;rounded=0;orthogonalLoop=1;jettySize=auto;html=1;entryX=-0.149;entryY=0.351;entryDx=0;entryDy=0;entryPerimeter=0;" parent="1" source="8MDQdU8q3CV9VLgFz5-Q-11" target="8MDQdU8q3CV9VLgFz5-Q-171" edge="1">
          <mxGeometry relative="1" as="geometry" />
        </mxCell>
        <mxCell id="8MDQdU8q3CV9VLgFz5-Q-11" value="взять задание" style="html=1;dashed=0;rounded=1;absoluteArcSize=1;arcSize=20;verticalAlign=middle;align=center;whiteSpace=wrap;" parent="1" vertex="1">
          <mxGeometry x="-150" y="290" width="110" height="50" as="geometry" />
        </mxCell>
        <mxCell id="8MDQdU8q3CV9VLgFz5-Q-12" value="*" style="text;resizeWidth=0;resizeHeight=0;points=[];part=1;verticalAlign=middle;align=center;html=1;" parent="8MDQdU8q3CV9VLgFz5-Q-11" vertex="1">
          <mxGeometry x="1" y="0.5" width="20" height="20" relative="1" as="geometry">
            <mxPoint x="-20" y="-10" as="offset" />
          </mxGeometry>
        </mxCell>
        <mxCell id="8MDQdU8q3CV9VLgFz5-Q-89" style="edgeStyle=orthogonalEdgeStyle;rounded=0;orthogonalLoop=1;jettySize=auto;html=1;entryX=0.5;entryY=0;entryDx=0;entryDy=0;" parent="1" source="8MDQdU8q3CV9VLgFz5-Q-15" target="8MDQdU8q3CV9VLgFz5-Q-88" edge="1">
          <mxGeometry relative="1" as="geometry" />
        </mxCell>
        <mxCell id="8MDQdU8q3CV9VLgFz5-Q-15" value="переключение боевого режима" style="html=1;dashed=0;rounded=1;absoluteArcSize=1;arcSize=20;verticalAlign=middle;align=center;whiteSpace=wrap;" parent="1" vertex="1">
          <mxGeometry x="372.5" y="170" width="110" height="50" as="geometry" />
        </mxCell>
        <mxCell id="8MDQdU8q3CV9VLgFz5-Q-16" value="*" style="text;resizeWidth=0;resizeHeight=0;points=[];part=1;verticalAlign=middle;align=center;html=1;" parent="8MDQdU8q3CV9VLgFz5-Q-15" vertex="1">
          <mxGeometry x="1" y="0.5" width="20" height="20" relative="1" as="geometry">
            <mxPoint x="-20" y="-10" as="offset" />
          </mxGeometry>
        </mxCell>
        <mxCell id="8MDQdU8q3CV9VLgFz5-Q-17" value="сражаться с врагом" style="html=1;dashed=0;rounded=1;absoluteArcSize=1;arcSize=20;verticalAlign=middle;align=center;whiteSpace=wrap;" parent="1" vertex="1">
          <mxGeometry x="770" y="160" width="110" height="50" as="geometry" />
        </mxCell>
        <mxCell id="8MDQdU8q3CV9VLgFz5-Q-18" value="*" style="text;resizeWidth=0;resizeHeight=0;points=[];part=1;verticalAlign=middle;align=center;html=1;" parent="8MDQdU8q3CV9VLgFz5-Q-17" vertex="1">
          <mxGeometry x="1" y="0.5" width="20" height="20" relative="1" as="geometry">
            <mxPoint x="-20" y="-10" as="offset" />
          </mxGeometry>
        </mxCell>
        <mxCell id="8MDQdU8q3CV9VLgFz5-Q-19" value="торговать" style="html=1;dashed=0;rounded=1;absoluteArcSize=1;arcSize=20;verticalAlign=middle;align=center;whiteSpace=wrap;" parent="1" vertex="1">
          <mxGeometry x="165" y="320" width="110" height="50" as="geometry" />
        </mxCell>
        <mxCell id="8MDQdU8q3CV9VLgFz5-Q-20" value="*" style="text;resizeWidth=0;resizeHeight=0;points=[];part=1;verticalAlign=middle;align=center;html=1;" parent="8MDQdU8q3CV9VLgFz5-Q-19" vertex="1">
          <mxGeometry x="1" y="0.5" width="20" height="20" relative="1" as="geometry">
            <mxPoint x="-20" y="-10" as="offset" />
          </mxGeometry>
        </mxCell>
        <mxCell id="8MDQdU8q3CV9VLgFz5-Q-24" value="" style="endArrow=classic;html=1;rounded=0;entryX=0.5;entryY=0;entryDx=0;entryDy=0;exitX=0.482;exitY=0.97;exitDx=0;exitDy=0;exitPerimeter=0;" parent="1" edge="1">
          <mxGeometry width="50" height="50" relative="1" as="geometry">
            <mxPoint x="134.86" y="135" as="sourcePoint" />
            <mxPoint x="134.86" y="170" as="targetPoint" />
          </mxGeometry>
        </mxCell>
        <mxCell id="8MDQdU8q3CV9VLgFz5-Q-25" value="" style="endArrow=classic;html=1;rounded=0;entryX=0.5;entryY=0;entryDx=0;entryDy=0;exitX=1.233;exitY=0.553;exitDx=0;exitDy=0;exitPerimeter=0;" parent="1" source="8MDQdU8q3CV9VLgFz5-Q-2" target="8MDQdU8q3CV9VLgFz5-Q-15" edge="1">
          <mxGeometry width="50" height="50" relative="1" as="geometry">
            <mxPoint x="404.63" y="135" as="sourcePoint" />
            <mxPoint x="404.63" y="170" as="targetPoint" />
          </mxGeometry>
        </mxCell>
        <mxCell id="8MDQdU8q3CV9VLgFz5-Q-26" value="" style="endArrow=classic;html=1;rounded=0;exitX=0.482;exitY=0.97;exitDx=0;exitDy=0;exitPerimeter=0;" parent="1" edge="1">
          <mxGeometry width="50" height="50" relative="1" as="geometry">
            <mxPoint x="824.6600000000001" y="135" as="sourcePoint" />
            <mxPoint x="825" y="160" as="targetPoint" />
          </mxGeometry>
        </mxCell>
        <mxCell id="8MDQdU8q3CV9VLgFz5-Q-28" value="" style="rhombus;" parent="1" vertex="1">
          <mxGeometry x="120" y="250" width="30" height="30" as="geometry" />
        </mxCell>
        <mxCell id="8MDQdU8q3CV9VLgFz5-Q-29" value="" style="endArrow=classic;html=1;rounded=0;entryX=0.5;entryY=0;entryDx=0;entryDy=0;exitX=0;exitY=0.5;exitDx=0;exitDy=0;" parent="1" source="8MDQdU8q3CV9VLgFz5-Q-28" target="8MDQdU8q3CV9VLgFz5-Q-11" edge="1">
          <mxGeometry width="50" height="50" relative="1" as="geometry">
            <mxPoint x="40" y="285" as="sourcePoint" />
            <mxPoint x="40" y="320" as="targetPoint" />
            <Array as="points">
              <mxPoint x="-95" y="265" />
            </Array>
          </mxGeometry>
        </mxCell>
        <mxCell id="8MDQdU8q3CV9VLgFz5-Q-30" value="" style="endArrow=classic;html=1;rounded=0;entryX=0.496;entryY=-0.096;entryDx=0;entryDy=0;exitX=0.5;exitY=1;exitDx=0;exitDy=0;entryPerimeter=0;" parent="1" source="8MDQdU8q3CV9VLgFz5-Q-9" target="8MDQdU8q3CV9VLgFz5-Q-28" edge="1">
          <mxGeometry width="50" height="50" relative="1" as="geometry">
            <mxPoint x="135.15" y="210" as="sourcePoint" />
            <mxPoint x="134.85" y="240" as="targetPoint" />
          </mxGeometry>
        </mxCell>
        <mxCell id="8MDQdU8q3CV9VLgFz5-Q-31" value="" style="endArrow=classic;html=1;rounded=0;entryX=0.5;entryY=0;entryDx=0;entryDy=0;exitX=1;exitY=0.5;exitDx=0;exitDy=0;" parent="1" source="8MDQdU8q3CV9VLgFz5-Q-28" target="8MDQdU8q3CV9VLgFz5-Q-19" edge="1">
          <mxGeometry width="50" height="50" relative="1" as="geometry">
            <mxPoint x="257.5" y="265" as="sourcePoint" />
            <mxPoint x="182.5" y="320" as="targetPoint" />
            <Array as="points">
              <mxPoint x="220" y="265" />
            </Array>
          </mxGeometry>
        </mxCell>
        <mxCell id="8MDQdU8q3CV9VLgFz5-Q-32" value="[хочу пройти задание]" style="text;html=1;align=center;verticalAlign=middle;resizable=0;points=[];autosize=1;strokeColor=none;fillColor=none;" parent="1" vertex="1">
          <mxGeometry x="-50" y="238" width="150" height="30" as="geometry" />
        </mxCell>
        <mxCell id="8MDQdU8q3CV9VLgFz5-Q-33" value="[хочу торговать]" style="text;html=1;align=center;verticalAlign=middle;resizable=0;points=[];autosize=1;strokeColor=none;fillColor=none;" parent="1" vertex="1">
          <mxGeometry x="145" y="238" width="110" height="30" as="geometry" />
        </mxCell>
        <mxCell id="8MDQdU8q3CV9VLgFz5-Q-34" style="edgeStyle=orthogonalEdgeStyle;rounded=0;orthogonalLoop=1;jettySize=auto;html=1;entryX=-0.3;entryY=0.693;entryDx=0;entryDy=0;entryPerimeter=0;exitX=0.5;exitY=1;exitDx=0;exitDy=0;" parent="1" source="2lmH5vOfD7ZD-TU4pu-p-10" target="8MDQdU8q3CV9VLgFz5-Q-2" edge="1">
          <mxGeometry relative="1" as="geometry">
            <mxPoint x="300" y="40" as="sourcePoint" />
            <mxPoint x="300" y="70" as="targetPoint" />
          </mxGeometry>
        </mxCell>
        <mxCell id="M_YLtqH27uajQndFss1J-1" style="edgeStyle=orthogonalEdgeStyle;rounded=0;orthogonalLoop=1;jettySize=auto;html=1;" edge="1" parent="1" source="8MDQdU8q3CV9VLgFz5-Q-35">
          <mxGeometry relative="1" as="geometry">
            <mxPoint x="110" y="720" as="targetPoint" />
          </mxGeometry>
        </mxCell>
        <mxCell id="8MDQdU8q3CV9VLgFz5-Q-35" value="продать предмет" style="html=1;dashed=0;rounded=1;absoluteArcSize=1;arcSize=20;verticalAlign=middle;align=center;whiteSpace=wrap;" parent="1" vertex="1">
          <mxGeometry x="55" y="480" width="110" height="50" as="geometry" />
        </mxCell>
        <mxCell id="8MDQdU8q3CV9VLgFz5-Q-36" value="*" style="text;resizeWidth=0;resizeHeight=0;points=[];part=1;verticalAlign=middle;align=center;html=1;" parent="8MDQdU8q3CV9VLgFz5-Q-35" vertex="1">
          <mxGeometry x="1" y="0.5" width="20" height="20" relative="1" as="geometry">
            <mxPoint x="-20" y="-10" as="offset" />
          </mxGeometry>
        </mxCell>
        <mxCell id="8MDQdU8q3CV9VLgFz5-Q-38" value="" style="rhombus;" parent="1" vertex="1">
          <mxGeometry x="205" y="420" width="30" height="30" as="geometry" />
        </mxCell>
        <mxCell id="8MDQdU8q3CV9VLgFz5-Q-39" value="попытаться купить предмет" style="html=1;dashed=0;rounded=1;absoluteArcSize=1;arcSize=20;verticalAlign=middle;align=center;whiteSpace=wrap;" parent="1" vertex="1">
          <mxGeometry x="255" y="500" width="110" height="50" as="geometry" />
        </mxCell>
        <mxCell id="8MDQdU8q3CV9VLgFz5-Q-40" value="*" style="text;resizeWidth=0;resizeHeight=0;points=[];part=1;verticalAlign=middle;align=center;html=1;" parent="8MDQdU8q3CV9VLgFz5-Q-39" vertex="1">
          <mxGeometry x="1" y="0.5" width="20" height="20" relative="1" as="geometry">
            <mxPoint x="-20" y="-10" as="offset" />
          </mxGeometry>
        </mxCell>
        <mxCell id="8MDQdU8q3CV9VLgFz5-Q-41" value="" style="endArrow=classic;html=1;rounded=0;exitX=1;exitY=0.5;exitDx=0;exitDy=0;" parent="1" source="8MDQdU8q3CV9VLgFz5-Q-38" edge="1">
          <mxGeometry width="50" height="50" relative="1" as="geometry">
            <mxPoint x="235" y="440" as="sourcePoint" />
            <mxPoint x="310" y="470" as="targetPoint" />
            <Array as="points">
              <mxPoint x="310" y="435" />
            </Array>
          </mxGeometry>
        </mxCell>
        <mxCell id="8MDQdU8q3CV9VLgFz5-Q-42" value="" style="endArrow=classic;html=1;rounded=0;entryX=0.5;entryY=0;entryDx=0;entryDy=0;" parent="1" source="8MDQdU8q3CV9VLgFz5-Q-38" target="8MDQdU8q3CV9VLgFz5-Q-35" edge="1">
          <mxGeometry width="50" height="50" relative="1" as="geometry">
            <mxPoint x="75" y="430" as="sourcePoint" />
            <mxPoint x="150" y="475" as="targetPoint" />
            <Array as="points">
              <mxPoint x="110" y="435" />
            </Array>
          </mxGeometry>
        </mxCell>
        <mxCell id="8MDQdU8q3CV9VLgFz5-Q-43" value="" style="endArrow=classic;html=1;rounded=0;entryX=0.5;entryY=0;entryDx=0;entryDy=0;exitX=0.5;exitY=1;exitDx=0;exitDy=0;" parent="1" source="8MDQdU8q3CV9VLgFz5-Q-19" target="8MDQdU8q3CV9VLgFz5-Q-38" edge="1">
          <mxGeometry width="50" height="50" relative="1" as="geometry">
            <mxPoint x="100" y="430" as="sourcePoint" />
            <mxPoint x="150" y="380" as="targetPoint" />
          </mxGeometry>
        </mxCell>
        <mxCell id="8MDQdU8q3CV9VLgFz5-Q-44" value="[хочу продать предмет]" style="text;html=1;align=center;verticalAlign=middle;resizable=0;points=[];autosize=1;strokeColor=none;fillColor=none;" parent="1" vertex="1">
          <mxGeometry x="65" y="408" width="150" height="30" as="geometry" />
        </mxCell>
        <mxCell id="8MDQdU8q3CV9VLgFz5-Q-45" value="[хочу купить предмет]" style="text;html=1;align=center;verticalAlign=middle;resizable=0;points=[];autosize=1;strokeColor=none;fillColor=none;" parent="1" vertex="1">
          <mxGeometry x="225" y="408" width="140" height="30" as="geometry" />
        </mxCell>
        <mxCell id="8MDQdU8q3CV9VLgFz5-Q-46" value="" style="rhombus;" parent="1" vertex="1">
          <mxGeometry x="295" y="570" width="30" height="30" as="geometry" />
        </mxCell>
        <mxCell id="8MDQdU8q3CV9VLgFz5-Q-48" value="" style="endArrow=classic;html=1;rounded=0;entryX=0.5;entryY=0;entryDx=0;entryDy=0;exitX=0.5;exitY=1;exitDx=0;exitDy=0;" parent="1" source="8MDQdU8q3CV9VLgFz5-Q-39" target="8MDQdU8q3CV9VLgFz5-Q-46" edge="1">
          <mxGeometry width="50" height="50" relative="1" as="geometry">
            <mxPoint x="309.71" y="530" as="sourcePoint" />
            <mxPoint x="309.71" y="576" as="targetPoint" />
          </mxGeometry>
        </mxCell>
        <mxCell id="8MDQdU8q3CV9VLgFz5-Q-50" value="идти копить деньги" style="html=1;dashed=0;rounded=1;absoluteArcSize=1;arcSize=20;verticalAlign=middle;align=center;whiteSpace=wrap;" parent="1" vertex="1">
          <mxGeometry x="170" y="630" width="110" height="50" as="geometry" />
        </mxCell>
        <mxCell id="8MDQdU8q3CV9VLgFz5-Q-51" value="*" style="text;resizeWidth=0;resizeHeight=0;points=[];part=1;verticalAlign=middle;align=center;html=1;" parent="8MDQdU8q3CV9VLgFz5-Q-50" vertex="1">
          <mxGeometry x="1" y="0.5" width="20" height="20" relative="1" as="geometry">
            <mxPoint x="-20" y="-10" as="offset" />
          </mxGeometry>
        </mxCell>
        <mxCell id="8MDQdU8q3CV9VLgFz5-Q-52" value="купить предмет" style="html=1;dashed=0;rounded=1;absoluteArcSize=1;arcSize=20;verticalAlign=middle;align=center;whiteSpace=wrap;" parent="1" vertex="1">
          <mxGeometry x="340" y="630" width="110" height="50" as="geometry" />
        </mxCell>
        <mxCell id="8MDQdU8q3CV9VLgFz5-Q-53" value="*" style="text;resizeWidth=0;resizeHeight=0;points=[];part=1;verticalAlign=middle;align=center;html=1;" parent="8MDQdU8q3CV9VLgFz5-Q-52" vertex="1">
          <mxGeometry x="1" y="0.5" width="20" height="20" relative="1" as="geometry">
            <mxPoint x="-20" y="-10" as="offset" />
          </mxGeometry>
        </mxCell>
        <mxCell id="8MDQdU8q3CV9VLgFz5-Q-55" value="" style="endArrow=classic;html=1;rounded=0;entryX=0.5;entryY=0;entryDx=0;entryDy=0;exitX=1;exitY=0.5;exitDx=0;exitDy=0;" parent="1" target="8MDQdU8q3CV9VLgFz5-Q-52" edge="1">
          <mxGeometry width="50" height="50" relative="1" as="geometry">
            <mxPoint x="325" y="585" as="sourcePoint" />
            <mxPoint x="400" y="630" as="targetPoint" />
            <Array as="points">
              <mxPoint x="395" y="585" />
            </Array>
          </mxGeometry>
        </mxCell>
        <mxCell id="8MDQdU8q3CV9VLgFz5-Q-56" value="" style="endArrow=classic;html=1;rounded=0;entryX=0.5;entryY=0;entryDx=0;entryDy=0;exitX=0;exitY=0.5;exitDx=0;exitDy=0;" parent="1" source="8MDQdU8q3CV9VLgFz5-Q-46" target="8MDQdU8q3CV9VLgFz5-Q-50" edge="1">
          <mxGeometry width="50" height="50" relative="1" as="geometry">
            <mxPoint x="205" y="585" as="sourcePoint" />
            <mxPoint x="275" y="630" as="targetPoint" />
            <Array as="points">
              <mxPoint x="225" y="585" />
            </Array>
          </mxGeometry>
        </mxCell>
        <mxCell id="8MDQdU8q3CV9VLgFz5-Q-57" value="[у меня нехватает денег]" style="text;html=1;align=center;verticalAlign=middle;resizable=0;points=[];autosize=1;strokeColor=none;fillColor=none;" parent="1" vertex="1">
          <mxGeometry x="145" y="558" width="160" height="30" as="geometry" />
        </mxCell>
        <mxCell id="8MDQdU8q3CV9VLgFz5-Q-71" style="edgeStyle=orthogonalEdgeStyle;rounded=0;orthogonalLoop=1;jettySize=auto;html=1;entryX=0.5;entryY=0;entryDx=0;entryDy=0;" parent="1" source="8MDQdU8q3CV9VLgFz5-Q-60" target="8MDQdU8q3CV9VLgFz5-Q-68" edge="1">
          <mxGeometry relative="1" as="geometry" />
        </mxCell>
        <mxCell id="8MDQdU8q3CV9VLgFz5-Q-72" style="edgeStyle=orthogonalEdgeStyle;rounded=0;orthogonalLoop=1;jettySize=auto;html=1;entryX=0.5;entryY=0;entryDx=0;entryDy=0;" parent="1" source="8MDQdU8q3CV9VLgFz5-Q-60" target="8MDQdU8q3CV9VLgFz5-Q-75" edge="1">
          <mxGeometry relative="1" as="geometry">
            <mxPoint x="-175" y="480" as="targetPoint" />
          </mxGeometry>
        </mxCell>
        <mxCell id="8MDQdU8q3CV9VLgFz5-Q-60" value="" style="rhombus;" parent="1" vertex="1">
          <mxGeometry x="-110" y="420" width="30" height="30" as="geometry" />
        </mxCell>
        <mxCell id="8MDQdU8q3CV9VLgFz5-Q-68" value="получить награду" style="html=1;dashed=0;rounded=1;absoluteArcSize=1;arcSize=20;verticalAlign=middle;align=center;whiteSpace=wrap;" parent="1" vertex="1">
          <mxGeometry x="-70" y="480" width="110" height="50" as="geometry" />
        </mxCell>
        <mxCell id="8MDQdU8q3CV9VLgFz5-Q-69" value="*" style="text;resizeWidth=0;resizeHeight=0;points=[];part=1;verticalAlign=middle;align=center;html=1;" parent="8MDQdU8q3CV9VLgFz5-Q-68" vertex="1">
          <mxGeometry x="1" y="0.5" width="20" height="20" relative="1" as="geometry">
            <mxPoint x="-20" y="-10" as="offset" />
          </mxGeometry>
        </mxCell>
        <mxCell id="8MDQdU8q3CV9VLgFz5-Q-73" value="[я не выполнил задание]" style="text;html=1;align=center;verticalAlign=middle;resizable=0;points=[];autosize=1;strokeColor=none;fillColor=none;" parent="1" vertex="1">
          <mxGeometry x="-255" y="408" width="160" height="30" as="geometry" />
        </mxCell>
        <mxCell id="8MDQdU8q3CV9VLgFz5-Q-74" value="[я выполнил задание]" style="text;html=1;align=center;verticalAlign=middle;resizable=0;points=[];autosize=1;strokeColor=none;fillColor=none;" parent="1" vertex="1">
          <mxGeometry x="-85" y="408" width="140" height="30" as="geometry" />
        </mxCell>
        <mxCell id="8MDQdU8q3CV9VLgFz5-Q-75" value="попытаться выполнить задание" style="html=1;dashed=0;rounded=1;absoluteArcSize=1;arcSize=20;verticalAlign=middle;align=center;whiteSpace=wrap;" parent="1" vertex="1">
          <mxGeometry x="-230" y="480" width="110" height="50" as="geometry" />
        </mxCell>
        <mxCell id="8MDQdU8q3CV9VLgFz5-Q-76" value="*" style="text;resizeWidth=0;resizeHeight=0;points=[];part=1;verticalAlign=middle;align=center;html=1;" parent="8MDQdU8q3CV9VLgFz5-Q-75" vertex="1">
          <mxGeometry x="1" y="0.5" width="20" height="20" relative="1" as="geometry">
            <mxPoint x="-20" y="-10" as="offset" />
          </mxGeometry>
        </mxCell>
        <mxCell id="8MDQdU8q3CV9VLgFz5-Q-79" value="" style="endArrow=classic;html=1;rounded=0;exitX=0;exitY=0.5;exitDx=0;exitDy=0;" parent="1" source="8MDQdU8q3CV9VLgFz5-Q-75" edge="1">
          <mxGeometry width="50" height="50" relative="1" as="geometry">
            <mxPoint x="-250" y="490" as="sourcePoint" />
            <mxPoint x="-130" y="370" as="targetPoint" />
            <Array as="points">
              <mxPoint x="-250" y="505" />
              <mxPoint x="-250" y="350" />
              <mxPoint x="-130" y="350" />
            </Array>
          </mxGeometry>
        </mxCell>
        <mxCell id="8MDQdU8q3CV9VLgFz5-Q-80" value="" style="html=1;points=[];perimeter=orthogonalPerimeter;fillColor=strokeColor;rotation=90;" parent="1" vertex="1">
          <mxGeometry x="640" y="30" width="5" height="1390" as="geometry" />
        </mxCell>
        <mxCell id="8MDQdU8q3CV9VLgFz5-Q-81" style="edgeStyle=orthogonalEdgeStyle;rounded=0;orthogonalLoop=1;jettySize=auto;html=1;" parent="1" source="8MDQdU8q3CV9VLgFz5-Q-68" edge="1">
          <mxGeometry relative="1" as="geometry">
            <mxPoint x="-15" y="720" as="targetPoint" />
          </mxGeometry>
        </mxCell>
        <mxCell id="8MDQdU8q3CV9VLgFz5-Q-85" value="" style="endArrow=classic;html=1;rounded=0;entryX=0.5;entryY=0;entryDx=0;entryDy=0;exitX=0.482;exitY=0.97;exitDx=0;exitDy=0;exitPerimeter=0;" parent="1" target="8MDQdU8q3CV9VLgFz5-Q-5" edge="1">
          <mxGeometry width="50" height="50" relative="1" as="geometry">
            <mxPoint x="594.84" y="135" as="sourcePoint" />
            <mxPoint x="594.84" y="170" as="targetPoint" />
          </mxGeometry>
        </mxCell>
        <mxCell id="8MDQdU8q3CV9VLgFz5-Q-86" value="" style="endArrow=classic;html=1;rounded=0;exitX=0.5;exitY=1;exitDx=0;exitDy=0;" parent="1" source="8MDQdU8q3CV9VLgFz5-Q-5" edge="1">
          <mxGeometry width="50" height="50" relative="1" as="geometry">
            <mxPoint x="594.6600000000001" y="220" as="sourcePoint" />
            <mxPoint x="600" y="724.1379310344828" as="targetPoint" />
          </mxGeometry>
        </mxCell>
        <mxCell id="8MDQdU8q3CV9VLgFz5-Q-87" value="" style="endArrow=classic;html=1;rounded=0;entryX=0.5;entryY=0;entryDx=0;entryDy=0;exitX=0.5;exitY=1;exitDx=0;exitDy=0;" parent="1" source="8MDQdU8q3CV9VLgFz5-Q-52" edge="1">
          <mxGeometry width="50" height="50" relative="1" as="geometry">
            <mxPoint x="325" y="680" as="sourcePoint" />
            <mxPoint x="395" y="725" as="targetPoint" />
            <Array as="points">
              <mxPoint x="395" y="680" />
            </Array>
          </mxGeometry>
        </mxCell>
        <mxCell id="8MDQdU8q3CV9VLgFz5-Q-94" style="edgeStyle=orthogonalEdgeStyle;rounded=0;orthogonalLoop=1;jettySize=auto;html=1;entryX=0.5;entryY=0;entryDx=0;entryDy=0;" parent="1" source="8MDQdU8q3CV9VLgFz5-Q-88" target="8MDQdU8q3CV9VLgFz5-Q-92" edge="1">
          <mxGeometry relative="1" as="geometry">
            <Array as="points">
              <mxPoint x="495" y="265" />
            </Array>
          </mxGeometry>
        </mxCell>
        <mxCell id="8MDQdU8q3CV9VLgFz5-Q-88" value="" style="rhombus;" parent="1" vertex="1">
          <mxGeometry x="412.5" y="250" width="30" height="30" as="geometry" />
        </mxCell>
        <mxCell id="8MDQdU8q3CV9VLgFz5-Q-90" value="переключиться на дальний режим атаки" style="html=1;dashed=0;rounded=1;absoluteArcSize=1;arcSize=20;verticalAlign=middle;align=center;whiteSpace=wrap;" parent="1" vertex="1">
          <mxGeometry x="302.5" y="310" width="110" height="50" as="geometry" />
        </mxCell>
        <mxCell id="8MDQdU8q3CV9VLgFz5-Q-91" value="*" style="text;resizeWidth=0;resizeHeight=0;points=[];part=1;verticalAlign=middle;align=center;html=1;" parent="8MDQdU8q3CV9VLgFz5-Q-90" vertex="1">
          <mxGeometry x="1" y="0.5" width="20" height="20" relative="1" as="geometry">
            <mxPoint x="-20" y="-10" as="offset" />
          </mxGeometry>
        </mxCell>
        <mxCell id="8MDQdU8q3CV9VLgFz5-Q-92" value="переключиться на ближний режим атаки" style="html=1;dashed=0;rounded=1;absoluteArcSize=1;arcSize=20;verticalAlign=middle;align=center;whiteSpace=wrap;" parent="1" vertex="1">
          <mxGeometry x="440" y="310" width="110" height="50" as="geometry" />
        </mxCell>
        <mxCell id="8MDQdU8q3CV9VLgFz5-Q-93" value="*" style="text;resizeWidth=0;resizeHeight=0;points=[];part=1;verticalAlign=middle;align=center;html=1;" parent="8MDQdU8q3CV9VLgFz5-Q-92" vertex="1">
          <mxGeometry x="1" y="0.5" width="20" height="20" relative="1" as="geometry">
            <mxPoint x="-20" y="-10" as="offset" />
          </mxGeometry>
        </mxCell>
        <mxCell id="8MDQdU8q3CV9VLgFz5-Q-95" style="edgeStyle=orthogonalEdgeStyle;rounded=0;orthogonalLoop=1;jettySize=auto;html=1;entryX=0.5;entryY=0;entryDx=0;entryDy=0;exitX=0;exitY=0.5;exitDx=0;exitDy=0;" parent="1" source="8MDQdU8q3CV9VLgFz5-Q-88" edge="1">
          <mxGeometry relative="1" as="geometry">
            <mxPoint x="305" y="265" as="sourcePoint" />
            <mxPoint x="357" y="310" as="targetPoint" />
            <Array as="points">
              <mxPoint x="357" y="265" />
            </Array>
          </mxGeometry>
        </mxCell>
        <mxCell id="8MDQdU8q3CV9VLgFz5-Q-96" value="[у меня включен]&amp;nbsp;&lt;div&gt;[ближний режим&amp;nbsp;&lt;span style=&quot;background-color: transparent; color: light-dark(rgb(0, 0, 0), rgb(255, 255, 255));&quot;&gt;атаки]&lt;/span&gt;&lt;/div&gt;" style="text;html=1;align=center;verticalAlign=middle;resizable=0;points=[];autosize=1;strokeColor=none;fillColor=none;" parent="1" vertex="1">
          <mxGeometry x="275" y="228" width="150" height="40" as="geometry" />
        </mxCell>
        <mxCell id="8MDQdU8q3CV9VLgFz5-Q-97" value="[у меня включен]&amp;nbsp;&lt;div&gt;[дальний режим&amp;nbsp;&lt;span style=&quot;background-color: transparent; color: light-dark(rgb(0, 0, 0), rgb(255, 255, 255));&quot;&gt;атаки]&lt;/span&gt;&lt;/div&gt;" style="text;html=1;align=center;verticalAlign=middle;resizable=0;points=[];autosize=1;strokeColor=none;fillColor=none;" parent="1" vertex="1">
          <mxGeometry x="440" y="228" width="150" height="40" as="geometry" />
        </mxCell>
        <mxCell id="8MDQdU8q3CV9VLgFz5-Q-98" style="edgeStyle=orthogonalEdgeStyle;rounded=0;orthogonalLoop=1;jettySize=auto;html=1;" parent="1" source="8MDQdU8q3CV9VLgFz5-Q-90" edge="1">
          <mxGeometry relative="1" as="geometry">
            <mxPoint x="462" y="720" as="targetPoint" />
            <Array as="points">
              <mxPoint x="360" y="410" />
              <mxPoint x="462" y="410" />
            </Array>
          </mxGeometry>
        </mxCell>
        <mxCell id="8MDQdU8q3CV9VLgFz5-Q-99" style="edgeStyle=orthogonalEdgeStyle;rounded=0;orthogonalLoop=1;jettySize=auto;html=1;" parent="1" source="8MDQdU8q3CV9VLgFz5-Q-92" edge="1">
          <mxGeometry relative="1" as="geometry">
            <mxPoint x="495" y="720" as="targetPoint" />
          </mxGeometry>
        </mxCell>
        <mxCell id="8MDQdU8q3CV9VLgFz5-Q-107" style="edgeStyle=orthogonalEdgeStyle;rounded=0;orthogonalLoop=1;jettySize=auto;html=1;entryX=0.5;entryY=0;entryDx=0;entryDy=0;" parent="1" source="8MDQdU8q3CV9VLgFz5-Q-100" target="8MDQdU8q3CV9VLgFz5-Q-105" edge="1">
          <mxGeometry relative="1" as="geometry" />
        </mxCell>
        <mxCell id="8MDQdU8q3CV9VLgFz5-Q-108" style="edgeStyle=orthogonalEdgeStyle;rounded=0;orthogonalLoop=1;jettySize=auto;html=1;entryX=0.5;entryY=0;entryDx=0;entryDy=0;" parent="1" source="8MDQdU8q3CV9VLgFz5-Q-100" target="8MDQdU8q3CV9VLgFz5-Q-103" edge="1">
          <mxGeometry relative="1" as="geometry" />
        </mxCell>
        <mxCell id="8MDQdU8q3CV9VLgFz5-Q-100" value="" style="rhombus;" parent="1" vertex="1">
          <mxGeometry x="810" y="260" width="30" height="30" as="geometry" />
        </mxCell>
        <mxCell id="8MDQdU8q3CV9VLgFz5-Q-116" style="edgeStyle=orthogonalEdgeStyle;rounded=0;orthogonalLoop=1;jettySize=auto;html=1;entryX=0.5;entryY=0;entryDx=0;entryDy=0;" parent="1" source="8MDQdU8q3CV9VLgFz5-Q-102" target="8MDQdU8q3CV9VLgFz5-Q-114" edge="1">
          <mxGeometry relative="1" as="geometry">
            <Array as="points">
              <mxPoint x="680" y="415" />
              <mxPoint x="680" y="470" />
            </Array>
          </mxGeometry>
        </mxCell>
        <mxCell id="8MDQdU8q3CV9VLgFz5-Q-117" style="edgeStyle=orthogonalEdgeStyle;rounded=0;orthogonalLoop=1;jettySize=auto;html=1;entryX=0.5;entryY=0;entryDx=0;entryDy=0;" parent="1" source="8MDQdU8q3CV9VLgFz5-Q-102" target="8MDQdU8q3CV9VLgFz5-Q-112" edge="1">
          <mxGeometry relative="1" as="geometry">
            <Array as="points">
              <mxPoint x="815" y="415" />
            </Array>
          </mxGeometry>
        </mxCell>
        <mxCell id="8MDQdU8q3CV9VLgFz5-Q-102" value="" style="rhombus;" parent="1" vertex="1">
          <mxGeometry x="730" y="400" width="30" height="30" as="geometry" />
        </mxCell>
        <mxCell id="8MDQdU8q3CV9VLgFz5-Q-128" style="edgeStyle=orthogonalEdgeStyle;rounded=0;orthogonalLoop=1;jettySize=auto;html=1;entryX=0.5;entryY=0;entryDx=0;entryDy=0;" parent="1" source="8MDQdU8q3CV9VLgFz5-Q-103" target="8MDQdU8q3CV9VLgFz5-Q-127" edge="1">
          <mxGeometry relative="1" as="geometry" />
        </mxCell>
        <mxCell id="8MDQdU8q3CV9VLgFz5-Q-103" value="нанести урон" style="html=1;dashed=0;rounded=1;absoluteArcSize=1;arcSize=20;verticalAlign=middle;align=center;whiteSpace=wrap;" parent="1" vertex="1">
          <mxGeometry x="1090" y="320" width="110" height="50" as="geometry" />
        </mxCell>
        <mxCell id="8MDQdU8q3CV9VLgFz5-Q-104" value="*" style="text;resizeWidth=0;resizeHeight=0;points=[];part=1;verticalAlign=middle;align=center;html=1;" parent="8MDQdU8q3CV9VLgFz5-Q-103" vertex="1">
          <mxGeometry x="1" y="0.5" width="20" height="20" relative="1" as="geometry">
            <mxPoint x="-20" y="-10" as="offset" />
          </mxGeometry>
        </mxCell>
        <mxCell id="8MDQdU8q3CV9VLgFz5-Q-111" style="edgeStyle=orthogonalEdgeStyle;rounded=0;orthogonalLoop=1;jettySize=auto;html=1;entryX=0.5;entryY=0;entryDx=0;entryDy=0;" parent="1" source="8MDQdU8q3CV9VLgFz5-Q-105" target="8MDQdU8q3CV9VLgFz5-Q-102" edge="1">
          <mxGeometry relative="1" as="geometry" />
        </mxCell>
        <mxCell id="8MDQdU8q3CV9VLgFz5-Q-105" value="получить урон" style="html=1;dashed=0;rounded=1;absoluteArcSize=1;arcSize=20;verticalAlign=middle;align=center;whiteSpace=wrap;" parent="1" vertex="1">
          <mxGeometry x="690" y="320" width="110" height="50" as="geometry" />
        </mxCell>
        <mxCell id="8MDQdU8q3CV9VLgFz5-Q-106" value="*" style="text;resizeWidth=0;resizeHeight=0;points=[];part=1;verticalAlign=middle;align=center;html=1;" parent="8MDQdU8q3CV9VLgFz5-Q-105" vertex="1">
          <mxGeometry x="1" y="0.5" width="20" height="20" relative="1" as="geometry">
            <mxPoint x="-20" y="-10" as="offset" />
          </mxGeometry>
        </mxCell>
        <mxCell id="8MDQdU8q3CV9VLgFz5-Q-109" value="[враг попал по мне]" style="text;html=1;align=center;verticalAlign=middle;resizable=0;points=[];autosize=1;strokeColor=none;fillColor=none;" parent="1" vertex="1">
          <mxGeometry x="680" y="250" width="130" height="30" as="geometry" />
        </mxCell>
        <mxCell id="8MDQdU8q3CV9VLgFz5-Q-110" value="[я попал по врагу]" style="text;html=1;align=center;verticalAlign=middle;resizable=0;points=[];autosize=1;strokeColor=none;fillColor=none;" parent="1" vertex="1">
          <mxGeometry x="840" y="250" width="120" height="30" as="geometry" />
        </mxCell>
        <mxCell id="8MDQdU8q3CV9VLgFz5-Q-122" style="edgeStyle=orthogonalEdgeStyle;rounded=0;orthogonalLoop=1;jettySize=auto;html=1;entryX=0.5;entryY=0;entryDx=0;entryDy=0;" parent="1" source="8MDQdU8q3CV9VLgFz5-Q-112" target="8MDQdU8q3CV9VLgFz5-Q-120" edge="1">
          <mxGeometry relative="1" as="geometry" />
        </mxCell>
        <mxCell id="8MDQdU8q3CV9VLgFz5-Q-112" value="умереть" style="html=1;dashed=0;rounded=1;absoluteArcSize=1;arcSize=20;verticalAlign=middle;align=center;whiteSpace=wrap;" parent="1" vertex="1">
          <mxGeometry x="760" y="480" width="110" height="50" as="geometry" />
        </mxCell>
        <mxCell id="8MDQdU8q3CV9VLgFz5-Q-113" value="*" style="text;resizeWidth=0;resizeHeight=0;points=[];part=1;verticalAlign=middle;align=center;html=1;" parent="8MDQdU8q3CV9VLgFz5-Q-112" vertex="1">
          <mxGeometry x="1" y="0.5" width="20" height="20" relative="1" as="geometry">
            <mxPoint x="-20" y="-10" as="offset" />
          </mxGeometry>
        </mxCell>
        <mxCell id="8MDQdU8q3CV9VLgFz5-Q-114" value="получить урон" style="html=1;dashed=0;rounded=1;absoluteArcSize=1;arcSize=20;verticalAlign=middle;align=center;whiteSpace=wrap;" parent="1" vertex="1">
          <mxGeometry x="625" y="480" width="110" height="50" as="geometry" />
        </mxCell>
        <mxCell id="8MDQdU8q3CV9VLgFz5-Q-115" value="*" style="text;resizeWidth=0;resizeHeight=0;points=[];part=1;verticalAlign=middle;align=center;html=1;" parent="8MDQdU8q3CV9VLgFz5-Q-114" vertex="1">
          <mxGeometry x="1" y="0.5" width="20" height="20" relative="1" as="geometry">
            <mxPoint x="-20" y="-10" as="offset" />
          </mxGeometry>
        </mxCell>
        <mxCell id="8MDQdU8q3CV9VLgFz5-Q-118" value="[у меня было]&lt;div&gt;[мало здоровья]&lt;/div&gt;" style="text;html=1;align=center;verticalAlign=middle;resizable=0;points=[];autosize=1;strokeColor=none;fillColor=none;" parent="1" vertex="1">
          <mxGeometry x="620" y="370" width="110" height="40" as="geometry" />
        </mxCell>
        <mxCell id="8MDQdU8q3CV9VLgFz5-Q-119" value="[мое здоровье]&lt;div&gt;&lt;span style=&quot;background-color: transparent; color: light-dark(rgb(0, 0, 0), rgb(255, 255, 255));&quot;&gt;[меня не беспокоит]&lt;/span&gt;&lt;/div&gt;" style="text;html=1;align=center;verticalAlign=middle;resizable=0;points=[];autosize=1;strokeColor=none;fillColor=none;" parent="1" vertex="1">
          <mxGeometry x="735" y="370" width="140" height="40" as="geometry" />
        </mxCell>
        <mxCell id="8MDQdU8q3CV9VLgFz5-Q-120" value="возродиться" style="html=1;dashed=0;rounded=1;absoluteArcSize=1;arcSize=20;verticalAlign=middle;align=center;whiteSpace=wrap;" parent="1" vertex="1">
          <mxGeometry x="760" y="588" width="110" height="50" as="geometry" />
        </mxCell>
        <mxCell id="8MDQdU8q3CV9VLgFz5-Q-121" value="*" style="text;resizeWidth=0;resizeHeight=0;points=[];part=1;verticalAlign=middle;align=center;html=1;" parent="8MDQdU8q3CV9VLgFz5-Q-120" vertex="1">
          <mxGeometry x="1" y="0.5" width="20" height="20" relative="1" as="geometry">
            <mxPoint x="-20" y="-10" as="offset" />
          </mxGeometry>
        </mxCell>
        <mxCell id="8MDQdU8q3CV9VLgFz5-Q-123" style="edgeStyle=orthogonalEdgeStyle;rounded=0;orthogonalLoop=1;jettySize=auto;html=1;" parent="1" source="8MDQdU8q3CV9VLgFz5-Q-120" edge="1">
          <mxGeometry relative="1" as="geometry">
            <mxPoint x="815" y="722" as="targetPoint" />
          </mxGeometry>
        </mxCell>
        <mxCell id="8MDQdU8q3CV9VLgFz5-Q-126" value="" style="endArrow=classic;html=1;rounded=0;entryX=-0.167;entryY=0.879;entryDx=0;entryDy=0;entryPerimeter=0;exitX=0;exitY=0.5;exitDx=0;exitDy=0;" parent="1" source="8MDQdU8q3CV9VLgFz5-Q-114" target="8MDQdU8q3CV9VLgFz5-Q-158" edge="1">
          <mxGeometry width="50" height="50" relative="1" as="geometry">
            <mxPoint x="620" y="440" as="sourcePoint" />
            <mxPoint x="824.78" y="227.02999999999994" as="targetPoint" />
            <Array as="points">
              <mxPoint x="610" y="505" />
              <mxPoint x="610" y="220" />
              <mxPoint x="753" y="220" />
            </Array>
          </mxGeometry>
        </mxCell>
        <mxCell id="8MDQdU8q3CV9VLgFz5-Q-133" style="edgeStyle=orthogonalEdgeStyle;rounded=0;orthogonalLoop=1;jettySize=auto;html=1;entryX=0.5;entryY=0;entryDx=0;entryDy=0;" parent="1" source="8MDQdU8q3CV9VLgFz5-Q-127" target="8MDQdU8q3CV9VLgFz5-Q-129" edge="1">
          <mxGeometry relative="1" as="geometry">
            <Array as="points">
              <mxPoint x="1075" y="415" />
            </Array>
          </mxGeometry>
        </mxCell>
        <mxCell id="8MDQdU8q3CV9VLgFz5-Q-150" style="edgeStyle=orthogonalEdgeStyle;rounded=0;orthogonalLoop=1;jettySize=auto;html=1;entryX=0.5;entryY=0;entryDx=0;entryDy=0;" parent="1" source="8MDQdU8q3CV9VLgFz5-Q-127" target="8MDQdU8q3CV9VLgFz5-Q-131" edge="1">
          <mxGeometry relative="1" as="geometry" />
        </mxCell>
        <mxCell id="8MDQdU8q3CV9VLgFz5-Q-127" value="" style="rhombus;" parent="1" vertex="1">
          <mxGeometry x="1130" y="400" width="30" height="30" as="geometry" />
        </mxCell>
        <mxCell id="8MDQdU8q3CV9VLgFz5-Q-138" style="edgeStyle=orthogonalEdgeStyle;rounded=0;orthogonalLoop=1;jettySize=auto;html=1;entryX=0.5;entryY=0;entryDx=0;entryDy=0;" parent="1" source="8MDQdU8q3CV9VLgFz5-Q-129" target="8MDQdU8q3CV9VLgFz5-Q-137" edge="1">
          <mxGeometry relative="1" as="geometry" />
        </mxCell>
        <mxCell id="8MDQdU8q3CV9VLgFz5-Q-129" value="враг умирает" style="html=1;dashed=0;rounded=1;absoluteArcSize=1;arcSize=20;verticalAlign=middle;align=center;whiteSpace=wrap;" parent="1" vertex="1">
          <mxGeometry x="1020" y="480" width="110" height="50" as="geometry" />
        </mxCell>
        <mxCell id="8MDQdU8q3CV9VLgFz5-Q-130" value="*" style="text;resizeWidth=0;resizeHeight=0;points=[];part=1;verticalAlign=middle;align=center;html=1;" parent="8MDQdU8q3CV9VLgFz5-Q-129" vertex="1">
          <mxGeometry x="1" y="0.5" width="20" height="20" relative="1" as="geometry">
            <mxPoint x="-20" y="-10" as="offset" />
          </mxGeometry>
        </mxCell>
        <mxCell id="8MDQdU8q3CV9VLgFz5-Q-131" value="продолжить драться" style="html=1;dashed=0;rounded=1;absoluteArcSize=1;arcSize=20;verticalAlign=middle;align=center;whiteSpace=wrap;" parent="1" vertex="1">
          <mxGeometry x="1186" y="480" width="110" height="50" as="geometry" />
        </mxCell>
        <mxCell id="8MDQdU8q3CV9VLgFz5-Q-132" value="*" style="text;resizeWidth=0;resizeHeight=0;points=[];part=1;verticalAlign=middle;align=center;html=1;" parent="8MDQdU8q3CV9VLgFz5-Q-131" vertex="1">
          <mxGeometry x="1" y="0.5" width="20" height="20" relative="1" as="geometry">
            <mxPoint x="-20" y="-10" as="offset" />
          </mxGeometry>
        </mxCell>
        <mxCell id="8MDQdU8q3CV9VLgFz5-Q-135" value="[у врага было]&lt;div&gt;[мало здоровья]&lt;/div&gt;" style="text;html=1;align=center;verticalAlign=middle;resizable=0;points=[];autosize=1;strokeColor=none;fillColor=none;" parent="1" vertex="1">
          <mxGeometry x="1030" y="370" width="110" height="40" as="geometry" />
        </mxCell>
        <mxCell id="8MDQdU8q3CV9VLgFz5-Q-136" value="[у врага хватало&amp;nbsp;&lt;span style=&quot;background-color: transparent; color: light-dark(rgb(0, 0, 0), rgb(255, 255, 255));&quot;&gt;здоровья]&lt;/span&gt;" style="text;html=1;align=center;verticalAlign=middle;resizable=0;points=[];autosize=1;strokeColor=none;fillColor=none;" parent="1" vertex="1">
          <mxGeometry x="1150" y="375" width="170" height="30" as="geometry" />
        </mxCell>
        <mxCell id="8MDQdU8q3CV9VLgFz5-Q-143" style="edgeStyle=orthogonalEdgeStyle;rounded=0;orthogonalLoop=1;jettySize=auto;html=1;entryX=0.5;entryY=0;entryDx=0;entryDy=0;" parent="1" source="8MDQdU8q3CV9VLgFz5-Q-137" target="8MDQdU8q3CV9VLgFz5-Q-141" edge="1">
          <mxGeometry relative="1" as="geometry" />
        </mxCell>
        <mxCell id="8MDQdU8q3CV9VLgFz5-Q-144" style="edgeStyle=orthogonalEdgeStyle;rounded=0;orthogonalLoop=1;jettySize=auto;html=1;entryX=0.5;entryY=0;entryDx=0;entryDy=0;" parent="1" source="8MDQdU8q3CV9VLgFz5-Q-137" target="8MDQdU8q3CV9VLgFz5-Q-139" edge="1">
          <mxGeometry relative="1" as="geometry" />
        </mxCell>
        <mxCell id="8MDQdU8q3CV9VLgFz5-Q-137" value="" style="rhombus;" parent="1" vertex="1">
          <mxGeometry x="1060" y="570" width="30" height="30" as="geometry" />
        </mxCell>
        <mxCell id="8MDQdU8q3CV9VLgFz5-Q-148" style="edgeStyle=orthogonalEdgeStyle;rounded=0;orthogonalLoop=1;jettySize=auto;html=1;" parent="1" source="8MDQdU8q3CV9VLgFz5-Q-139" edge="1">
          <mxGeometry relative="1" as="geometry">
            <mxPoint x="995" y="720" as="targetPoint" />
          </mxGeometry>
        </mxCell>
        <mxCell id="8MDQdU8q3CV9VLgFz5-Q-139" value="босс умирает" style="html=1;dashed=0;rounded=1;absoluteArcSize=1;arcSize=20;verticalAlign=middle;align=center;whiteSpace=wrap;" parent="1" vertex="1">
          <mxGeometry x="940" y="620" width="110" height="50" as="geometry" />
        </mxCell>
        <mxCell id="8MDQdU8q3CV9VLgFz5-Q-140" value="*" style="text;resizeWidth=0;resizeHeight=0;points=[];part=1;verticalAlign=middle;align=center;html=1;" parent="8MDQdU8q3CV9VLgFz5-Q-139" vertex="1">
          <mxGeometry x="1" y="0.5" width="20" height="20" relative="1" as="geometry">
            <mxPoint x="-20" y="-10" as="offset" />
          </mxGeometry>
        </mxCell>
        <mxCell id="8MDQdU8q3CV9VLgFz5-Q-149" style="edgeStyle=orthogonalEdgeStyle;rounded=0;orthogonalLoop=1;jettySize=auto;html=1;" parent="1" source="8MDQdU8q3CV9VLgFz5-Q-141" edge="1">
          <mxGeometry relative="1" as="geometry">
            <mxPoint x="1155" y="720" as="targetPoint" />
          </mxGeometry>
        </mxCell>
        <mxCell id="8MDQdU8q3CV9VLgFz5-Q-141" value="враг умирает" style="html=1;dashed=0;rounded=1;absoluteArcSize=1;arcSize=20;verticalAlign=middle;align=center;whiteSpace=wrap;" parent="1" vertex="1">
          <mxGeometry x="1100" y="620" width="110" height="50" as="geometry" />
        </mxCell>
        <mxCell id="8MDQdU8q3CV9VLgFz5-Q-142" value="*" style="text;resizeWidth=0;resizeHeight=0;points=[];part=1;verticalAlign=middle;align=center;html=1;" parent="8MDQdU8q3CV9VLgFz5-Q-141" vertex="1">
          <mxGeometry x="1" y="0.5" width="20" height="20" relative="1" as="geometry">
            <mxPoint x="-20" y="-10" as="offset" />
          </mxGeometry>
        </mxCell>
        <mxCell id="8MDQdU8q3CV9VLgFz5-Q-145" value="[я убил босса]" style="text;html=1;align=center;verticalAlign=middle;resizable=0;points=[];autosize=1;strokeColor=none;fillColor=none;" parent="1" vertex="1">
          <mxGeometry x="962" y="555" width="100" height="30" as="geometry" />
        </mxCell>
        <mxCell id="8MDQdU8q3CV9VLgFz5-Q-146" value="[я убил обычного врага]" style="text;html=1;align=center;verticalAlign=middle;resizable=0;points=[];autosize=1;strokeColor=none;fillColor=none;" parent="1" vertex="1">
          <mxGeometry x="1075" y="555" width="160" height="30" as="geometry" />
        </mxCell>
        <mxCell id="8MDQdU8q3CV9VLgFz5-Q-152" value="" style="endArrow=classic;html=1;rounded=0;exitX=0.993;exitY=0.588;exitDx=0;exitDy=0;exitPerimeter=0;entryX=-0.117;entryY=0.158;entryDx=0;entryDy=0;entryPerimeter=0;" parent="1" source="8MDQdU8q3CV9VLgFz5-Q-132" target="8MDQdU8q3CV9VLgFz5-Q-158" edge="1">
          <mxGeometry width="50" height="50" relative="1" as="geometry">
            <mxPoint x="1300.2380952380952" y="500" as="sourcePoint" />
            <mxPoint x="890" y="230" as="targetPoint" />
            <Array as="points">
              <mxPoint x="1320" y="507" />
              <mxPoint x="1320" y="220" />
              <mxPoint x="890" y="220" />
            </Array>
          </mxGeometry>
        </mxCell>
        <mxCell id="8MDQdU8q3CV9VLgFz5-Q-153" value="" style="ellipse;html=1;shape=endState;fillColor=strokeColor;" parent="1" vertex="1">
          <mxGeometry x="265" y="800" width="30" height="30" as="geometry" />
        </mxCell>
        <mxCell id="8MDQdU8q3CV9VLgFz5-Q-157" value="" style="endArrow=classic;html=1;rounded=0;entryX=0.5;entryY=0;entryDx=0;entryDy=0;" parent="1" target="8MDQdU8q3CV9VLgFz5-Q-153" edge="1">
          <mxGeometry width="50" height="50" relative="1" as="geometry">
            <mxPoint x="280" y="728" as="sourcePoint" />
            <mxPoint x="300" y="740" as="targetPoint" />
          </mxGeometry>
        </mxCell>
        <mxCell id="8MDQdU8q3CV9VLgFz5-Q-163" style="edgeStyle=orthogonalEdgeStyle;rounded=0;orthogonalLoop=1;jettySize=auto;html=1;entryX=0.5;entryY=0;entryDx=0;entryDy=0;" parent="1" source="8MDQdU8q3CV9VLgFz5-Q-158" target="8MDQdU8q3CV9VLgFz5-Q-100" edge="1">
          <mxGeometry relative="1" as="geometry" />
        </mxCell>
        <mxCell id="8MDQdU8q3CV9VLgFz5-Q-158" value="" style="html=1;points=[];perimeter=orthogonalPerimeter;fillColor=strokeColor;rotation=90;" parent="1" vertex="1">
          <mxGeometry x="822.5" y="140" width="5" height="190" as="geometry" />
        </mxCell>
        <mxCell id="8MDQdU8q3CV9VLgFz5-Q-162" style="edgeStyle=orthogonalEdgeStyle;rounded=0;orthogonalLoop=1;jettySize=auto;html=1;entryX=0.163;entryY=0.501;entryDx=0;entryDy=0;entryPerimeter=0;" parent="1" source="8MDQdU8q3CV9VLgFz5-Q-17" target="8MDQdU8q3CV9VLgFz5-Q-158" edge="1">
          <mxGeometry relative="1" as="geometry" />
        </mxCell>
        <mxCell id="8MDQdU8q3CV9VLgFz5-Q-168" value="" style="endArrow=classic;html=1;rounded=0;exitX=0;exitY=0.5;exitDx=0;exitDy=0;" parent="1" source="8MDQdU8q3CV9VLgFz5-Q-50" edge="1">
          <mxGeometry width="50" height="50" relative="1" as="geometry">
            <mxPoint x="170" y="655" as="sourcePoint" />
            <mxPoint x="280" y="470" as="targetPoint" />
            <Array as="points">
              <mxPoint x="120" y="655" />
              <mxPoint x="120" y="560" />
              <mxPoint x="230" y="560" />
              <mxPoint x="230" y="450" />
              <mxPoint x="280" y="450" />
            </Array>
          </mxGeometry>
        </mxCell>
        <mxCell id="8MDQdU8q3CV9VLgFz5-Q-169" style="edgeStyle=orthogonalEdgeStyle;rounded=0;orthogonalLoop=1;jettySize=auto;html=1;entryX=0.5;entryY=0;entryDx=0;entryDy=0;" parent="1" source="8MDQdU8q3CV9VLgFz5-Q-167" target="8MDQdU8q3CV9VLgFz5-Q-39" edge="1">
          <mxGeometry relative="1" as="geometry" />
        </mxCell>
        <mxCell id="8MDQdU8q3CV9VLgFz5-Q-167" value="" style="html=1;points=[];perimeter=orthogonalPerimeter;fillColor=strokeColor;rotation=90;" parent="1" vertex="1">
          <mxGeometry x="307.5" y="430" width="5" height="90" as="geometry" />
        </mxCell>
        <mxCell id="8MDQdU8q3CV9VLgFz5-Q-170" value="[у меня хватает денег]" style="text;html=1;align=center;verticalAlign=middle;resizable=0;points=[];autosize=1;strokeColor=none;fillColor=none;" parent="1" vertex="1">
          <mxGeometry x="307.5" y="558" width="150" height="30" as="geometry" />
        </mxCell>
        <mxCell id="8MDQdU8q3CV9VLgFz5-Q-173" style="edgeStyle=orthogonalEdgeStyle;rounded=0;orthogonalLoop=1;jettySize=auto;html=1;entryX=0.5;entryY=0;entryDx=0;entryDy=0;" parent="1" source="8MDQdU8q3CV9VLgFz5-Q-171" target="8MDQdU8q3CV9VLgFz5-Q-60" edge="1">
          <mxGeometry relative="1" as="geometry">
            <Array as="points">
              <mxPoint x="-95" y="390" />
              <mxPoint x="-95" y="390" />
            </Array>
          </mxGeometry>
        </mxCell>
        <mxCell id="8MDQdU8q3CV9VLgFz5-Q-171" value="" style="html=1;points=[];perimeter=orthogonalPerimeter;fillColor=strokeColor;rotation=90;" parent="1" vertex="1">
          <mxGeometry x="-110" y="330" width="5" height="90" as="geometry" />
        </mxCell>
      </root>
    </mxGraphModel>
  </diagram>
</mxfile>
